<mxfile host="app.diagrams.net" modified="2023-08-21T12:57:39.796Z" agent="Mozilla/5.0 (Windows NT 10.0; Win64; x64) AppleWebKit/537.36 (KHTML, like Gecko) Chrome/115.0.0.0 Safari/537.36" version="21.6.2" etag="W2PcfRXuuDajQg2d96fR" type="github">
  <diagram name="PÃ¡gina-1" id="rpNPGyhWBymYQk6etw_-">
    <mxGraphModel>
      <root>
        <mxCell id="0" />
        <mxCell id="1" parent="0" />
      </root>
    </mxGraphModel>
  </diagram>
</mxfile>
